<svg id="Layer_1" data-name="Layer 1" xmlns="http://www.w3.org/2000/svg" viewBox="0 0 380.31 300"><defs><style>.cls-1{fill:#fff;}</style></defs><path class="cls-1" d="M307.94,126.59c6.67,2.93,12.65,6.47,17.7,11.53a46,46,0,0,1,12.88,23.15,47.45,47.45,0,0,1-2.8,29.7,46.14,46.14,0,0,1-13.33,17.32c-9.08,7.37-19.58,10.7-31.09,10.71q-116.43.12-232.84.07A39.67,39.67,0,0,1,18.74,177c1.33-22.42,22.34-39.58,44.52-36.29,2.06.3,2.9-.1,3.43-2.29A61.14,61.14,0,0,1,94.5,99.6a60.33,60.33,0,0,1,40.49-9c6.45.79,6.35.78,9.72-5.1a85.48,85.48,0,0,1,46.72-39.13,83.87,83.87,0,0,1,32.06-4.85,80.57,80.57,0,0,1,28.17,6c1.62.68,3.29,1.26,4.9,2,2.41,1,2.86.81,2.88-1.78,0-5.52,0-11,0-16.56,0-4,1.28-5.56,5.16-6.34a17.76,17.76,0,0,1,3.42-.3c9.66,0,19.33,0,29,0,.23,0,.46,0,.69,0,5.6.34,8.87,1.06,8.74,8.82-.25,14.42-.07,28.84-.05,43.26,0,3,.07,3.1,3.09,3.1,15,0,30.07.15,45.1-.08a6.89,6.89,0,0,1,7,7c-.09,11,0,22.08-.05,33.13,0,4.83-2.14,6.89-6.9,6.9H307.94Zm-1.53,21.69c0-6.59-.09-13.18,0-19.78a84.48,84.48,0,0,0-6.25-32.7C292.75,77.06,280,63,262.83,52.69c-2.57-1.54-3.36-1-3.36,2,0,7.21,0,14.41,0,21.62,0,3.31,0,3.33-3.34,3.33q-22.2,0-44.39,0c-5.07,0-7.46,2.4-7.47,7.47q0,16.11,0,32.2c0,5.1,2.19,7.28,7.23,7.29q22.42,0,44.85,0c3,0,3.1.06,3.1,3.07,0,14.72.17,29.45-.07,44.16-.1,6.09,3.22,8,7.92,8,10.51,0,21,0,31.51,0,5.46,0,7.59-2.19,7.6-7.74Q306.43,161.17,306.41,148.28Z"/><path class="cls-1" d="M36.3,258.48c0-4.67.05-9.35,0-14,0-1.89.68-2.57,2.57-2.52,6.27.13,5.28-.66,5.38,5.39,0,1.92,0,3.84,0,5.75,0,1.27.55,1.8,1.8,1.79,3.76,0,7.51,0,11.27,0,1.4,0,1.9-.62,1.88-2-.05-2.91.07-5.83-.05-8.73-.07-1.69.41-2.31,2.18-2.26,6.54.19,5.74-.93,5.77,5.72q.06,12.07,0,24.15c0,3.42-.11,3.43-3.51,3.43-5.49,0-4.29.2-4.38-4.4-.05-2.45,0-4.91,0-7.36,0-1.35-.58-2-1.94-1.94-3.68,0-7.36.05-11,0-1.53,0-2,.66-2,2.09,0,3.14,0,6.28,0,9.43,0,1.56-.58,2.22-2.15,2.2-6.67-.05-5.72.68-5.78-5.48,0-3.75,0-7.51,0-11.27Z"/><path class="cls-1" d="M176.27,251.87a13.28,13.28,0,0,1,9-2.6c5.29.34,9.07,3.71,9.34,9s.11,10.27.12,15.41c0,.3,0,.75-.13.88-1.91,1.46-4.09.58-6.16.6-1.41,0-1.28-1.26-1.28-2.25,0-3.6,0-7.21,0-10.81,0-4.31-1.43-6.09-4.79-6.15-3.71-.07-6,2.2-6,6.26q-.12,5.29,0,10.58c0,1.72-.51,2.51-2.36,2.5-6.34-.05-5.18.3-5.21-5.09-.07-9.21,0-18.41-.07-27.61,0-2.16.74-2.81,2.79-2.78,5.71.08,4.73-.16,4.83,4.84C176.31,246.88,176.27,249.15,176.27,251.87Z"/><path class="cls-1" d="M89.26,264.65c-2.46,0-4.91,0-7.36,0-.52,0-1.14-.09-1.46.46s.13,1.17.46,1.65c1.84,2.64,7.22,3.36,10.58,1.48.67-.38,1.28-1.48,2.18-.77A11.9,11.9,0,0,1,97,271.17c.24.46-.32.79-.64,1.11-4,3.93-13.27,4.36-18.58.87a13.17,13.17,0,0,1-4.7-15.9c2.3-5.94,9.07-9.21,16-7.73A12.46,12.46,0,0,1,99,262.19c0,1.75-.6,2.53-2.4,2.47-2.45-.08-4.91,0-7.36,0Zm-3.68-4.71c1.53,0,3.06,0,4.59,0s1.68-.82,1-1.89a5.92,5.92,0,0,0-5.76-3,5.73,5.73,0,0,0-5.14,3.28c-.51,1-.39,1.63.91,1.63Z"/><path class="cls-1" d="M118.5,272.78A11.84,11.84,0,0,1,107.2,275c-4-1.14-5.91-3.9-5.69-8,.17-3.36,2.52-5.77,6.33-6.54a43,43,0,0,1,8-.49c.72,0,1.68.28,2-.66a2.37,2.37,0,0,0-.66-2.11,4.35,4.35,0,0,0-3.17-1.65,11.71,11.71,0,0,0-7.36,1.16c-1.37.79-2,.35-2.65-.91-1.91-3.62-1.63-4.35,2.39-5.51a22,22,0,0,1,11.78-.44,9.35,9.35,0,0,1,7.43,9.32c.14,4.67,0,9.34.07,14,0,1.47-.56,2.13-2,2.08-.84,0-1.69,0-2.53,0C119.6,275.32,118.33,275.1,118.5,272.78Zm-4.29-8.14v-.08a25.74,25.74,0,0,0-3.41.34,2.46,2.46,0,0,0-2,2.27,2.34,2.34,0,0,0,1.57,2.55,6.3,6.3,0,0,0,6.11-.6,3.13,3.13,0,0,0,1.42-3.59c-.45-1.36-1.81-.73-2.8-.88A7,7,0,0,0,114.21,264.64Z"/><path class="cls-1" d="M156.57,261.91a42.43,42.43,0,0,0,0,4.37c.25,2.52,1.64,3.47,4.11,3,2.08-.41,2.76.27,3.59,3.35.5,1.86-1,2.07-2.05,2.38a11.58,11.58,0,0,1-9.13-.76A7.88,7.88,0,0,1,149,267c-.06-2.91-.1-5.83-.06-8.74,0-1.43-.29-2.23-2-2.37-3-.25-1.59-2.8-1.92-4.35s1-1.45,2-1.33c1.62.18,1.89-.77,2-2.1.23-4.21.26-4.11,4.51-4.24,2.11-.06,3.06.47,3,2.78-.11,3.53,0,3.51,3.51,3.66.93,0,2.21-.44,2.62.8a6,6,0,0,1,0,4.27c-.38.9-1.49.59-2.3.59-3.79,0-3.79,0-3.79,3.88v2.07Z"/><path class="cls-1" d="M340.11,271.33c-6.36,5.19-13.67,5.27-18.29.24s-4.46-13.43.05-18.06c4.87-5,12.15-4.86,18.45.64,0-4.15,0-8,0-11.83,0-1.16-.43-2.55,1.62-2.55,1.84,0,1.86,1.13,1.86,2.44q0,15.28,0,30.56a4.11,4.11,0,0,1-.28,1.79c-.36.71-1.16.62-1.85.56a1.3,1.3,0,0,1-1.27-1.35C340.29,273,340.61,272.11,340.11,271.33Zm-8.9.64a9,9,0,0,0,9.11-9.42c0-5.49-3.85-9.41-9.14-9.39s-9.07,3.88-9,9.43S325.85,272,331.21,272Z"/><path class="cls-1" d="M139.82,257.74c0,5,0,9.95,0,14.92,0,1.83-.53,2.64-2.49,2.6-6.06-.12-5.36.56-5.38-5.2,0-9.11.07-18.21,0-27.32,0-2.36.79-3,3.06-3,5.36.12,4.8-.18,4.82,4.89C139.84,249,139.83,253.38,139.82,257.74Z"/><path class="cls-1" d="M210.9,258.08c.06-6.1,2.75-11.52,9-14.56,6.67-3.23,13.21-2.76,19.29,1.71.78.58,1.49,1.15.47,2.19-.87.9-1.48,1.43-2.83.43a14,14,0,0,0-19.81,2.69,13.65,13.65,0,0,0,1.12,17.14,14.23,14.23,0,0,0,17.91,2.05c.73-.49,1.3-1.5,2.32-1.23a2.5,2.5,0,0,1,1.75,1.7c.22.9-.66,1.31-1.26,1.73-5.84,4.14-12.14,4.57-18.51,1.7S211.1,265.68,210.9,258.08Z"/><path class="cls-1" d="M282.59,262.63c0,7.54-5.33,12.69-13,12.68a12.75,12.75,0,0,1,.35-25.49C277.36,249.84,282.61,255.15,282.59,262.63Zm-3.76.15c0-6-3.39-9.65-9-9.63-5.37,0-8.89,3.65-8.92,9.24-.05,5.95,3.37,9.57,9,9.58C275.41,272,278.81,268.45,278.83,262.78Z"/><path class="cls-1" d="M307.93,271.73A11.44,11.44,0,0,1,296.6,275c-4.85-1.08-7.52-4.42-7.67-9.8-.12-4.36,0-8.72-.05-13.09,0-1.35.34-2.2,1.91-2.18s1.86.89,1.85,2.23c0,4,0,8,0,11.94,0,5.13,2.33,7.71,6.93,7.85,5,.15,8.29-2.68,8.5-7.6.17-3.89,0-7.8.06-11.71,0-1.3-.22-2.71,1.84-2.69s1.93,1.31,1.93,2.67c0,6.51,0,13,0,19.52,0,1.3.41,3-1.78,3s-1.83-1.56-1.95-2.88C308.18,272.14,308.07,272,307.93,271.73Z"/><path class="cls-1" d="M246.94,257.33c0-5.14,0-10.27,0-15.4,0-1.35.15-2.2,1.8-2.18s2,.77,2,2.14q0,15.51,0,31c0,1.29-.3,2.25-1.89,2.27s-1.86-.92-1.86-2.23c0-5.21,0-10.42,0-15.63Z"/></svg>